#!OML:ASF H:\Terrain\Patient Classification 1\Walking\liu\liu.ASF
:FULLY-SPECIFIED
:DEGREES
385
root 9.68391 16.754 30.2805 4.9841 2.14426 1.61782
lowerback -9.12055 -4.44143 -3.48019
upperback 0.956767 -5.69889 2.53202
thorax 6.72718 -2.9784 3.74942
lowerneck -24.9014 -2.07262 -9.62696
upperneck 25.1491 -1.88508 8.99344
head 12.69 -0.53922 4.78086
rclavicle -6.17226e-014 3.18055e-015
rhumerus -46.911 -12.1684 -64.4775
rradius 16.264
rwrist 8.39723
rhand -29.3066 -22.1909
rfingers 7.12502
rthumb -2.64786 -52.1542
lclavicle -6.17226e-014 3.18055e-015
lhumerus -12.0082 -16.696 85.5212
lradius 41.8749
lwrist 13.6028
lhand -16.4748 -27.8147
lfingers 7.12502
lthumb 9.74205 1.94
rfemur -38.7613 3.67393 21.6314
rtibia 39.3421
rfoot -6.98309 1.94581
rtoes -17.7581
lfemur 22.9385 9.09691 -20.6764
ltibia 9.05174
lfoot -0.646734 -4.63408
ltoes -12.8415
386
root 9.66173 16.7536 30.4832 4.84141 2.11328 1.44215
lowerback -6.59357 -4.58867 -3.67577
upperback -1.08871 -5.94708 2.94102
thorax 3.24644 -3.0256 4.52448
lowerneck -23.2379 -1.75609 -9.61162
upperneck 26.5298 -1.53783 8.5522
head 12.8666 -0.495504 4.69985
rclavicle 4.6733e-014 1.90833e-014
rhumerus -49.7237 -10.8054 -63.0029
rradius 16.4553
rwrist 9.15775
rhand -29.365 -22.1713
rfingers 7.12502
rthumb -2.70426 -52.134
lclavicle 4.6733e-014 1.90833e-014
lhumerus -16.6516 -15.7719 87.3113
lradius 42.0946
lwrist 12.955
lhand -16.9909 -28.3777
lfingers 7.12502
lthumb 9.2441 1.39961
rfemur -38.1497 3.73582 22.0521
rtibia 40.1113
rfoot -7.63939 1.98052
rtoes -13.9527
lfemur 19.9494 9.60948 -20.0421
ltibia 16.0412
lfoot -0.591135 -4.17163
ltoes -14.3113
387
root 9.63445 16.7548 30.6798 4.76129 2.00406 1.61183
lowerback -6.03888 -4.46843 -3.94525
upperback -1.50779 -5.77894 2.81897
thorax 2.49723 -2.92105 4.62854
lowerneck -22.9295 -1.73533 -9.38628
upperneck 26.8646 -1.64155 8.54703
head 12.9494 -0.529032 4.65199
rclavicle 5.03081e-014 -1.35174e-014
rhumerus -50.3384 -12.4501 -61.3757
rradius 15.9655
rwrist 11.3226
rhand -29.0231 -22.1726
rfingers 7.12502
rthumb -2.37403 -52.1391
lclavicle 5.03081e-014 -1.35174e-014
lhumerus -18.1616 -16.1066 87.8875
lradius 41.9096
lwrist 12.6152
lhand -17.1677 -28.5336
lfingers 7.12502
lthumb 9.0735 1.25126
rfemur -37.6212 3.7898 22.1262
rtibia 40.721
rfoot -8.21825 2.07487
rtoes -13.002
lfemur 17.7122 10.4882 -19.6647
ltibia 21.3713
lfoot 0.0437941 -4.45561
ltoes -17.5306
388
root 9.61091 16.7717 30.8743 4.89406 1.88567 1.16803
lowerback -6.09538 -4.35968 -3.69058
upperback -1.61174 -5.6517 2.97902
thorax 2.39862 -2.85263 4.66623
lowerneck -22.758 -1.63315 -9.26981
upperneck 26.8629 -1.53772 8.49427
head 12.8998 -0.480498 4.62573
rclavicle -9.67212e-014 2.54444e-014
rhumerus -50.1437 -13.9885 -60.2107
rradius 15.542
rwrist 12.6874
rhand -28.6837 -22.499
rfingers 7.12502
rthumb -2.04625 -52.469
lclavicle -9.67212e-014 2.54444e-014
lhumerus -18.89 -16.1442 88.3667
lradius 41.5197
lwrist 12.254
lhand -17.5823 -28.1847
lfingers 7.12502
lthumb 8.67349 1.6171
rfemur -37.2162 3.73473 22.9013
rtibia 41.0481
rfoot -8.80438 2.40485
rtoes -14.22
lfemur 15.4867 11.2863 -18.7258
ltibia 26.0914
lfoot 2.60379 -2.76478
ltoes -3.65008
389
root 9.59173 16.8035 31.0682 5.00685 1.99638 0.177334
lowerback -8.13856 -4.22394 -2.94942
upperback 0.0412385 -5.51272 3.21654
thorax 5.20385 -2.84951 4.30358
lowerneck -24.4811 -2.10141 -9.60804
upperneck 25.9993 -2.02936 9.013
head 12.9664 -0.618574 4.7935
rclavicle -2.25372e-014 4.77083e-015
rhumerus -47.3965 -16.8409 -60.2707
rradius 15.0905
rwrist 13.0292
rhand -28.9193 -23.779
rfingers 7.12502
rthumb -2.27381 -53.7466
lclavicle -2.25372e-014 4.77083e-015
lhumerus -16.4844 -16.7761 87.9772
lradius 40.7539
lwrist 12.288
lhand -17.9035 -27.7942
lfingers 7.12502
lthumb 8.36344 2.02019
rfemur -36.502 3.42221 24.2895
rtibia 41.0343
rfoot -9.52096 2.71058
rtoes -15.0977
lfemur 13.3683 11.6928 -17.313
ltibia 30.4186
lfoot 3.96951 -2.89228
ltoes -6.06196
390
root 9.57289 16.8293 31.2647 4.91503 2.29159 -0.53708
lowerback -9.44703 -4.20226 -2.45864
upperback 1.22748 -5.55186 3.34736
thorax 7.1728 -2.89643 4.03373
lowerneck -25.0696 -2.14021 -9.38988
upperneck 24.8002 -2.0856 9.13546
head 12.6067 -0.576879 4.74847
rclavicle -1.87355e-014 -2.38542e-015
rhumerus -45.5129 -18.5778 -60.7989
rradius 15.0874
rwrist 12.7586
rhand -29.0887 -24.6642
rfingers 7.12502
rthumb -2.43734 -54.63
lclavicle -1.87355e-014 -2.38542e-015
lhumerus -15.0235 -17.3019 87.7398
lradius 39.9068
lwrist 12.2519
lhand -17.0152 -28.1098
lfingers 7.12502
lthumb 9.2207 1.66857
rfemur -35.3186 3.03281 25.3162
rtibia 40.7086
rfoot -10.3555 2.82821
rtoes -14.7666
lfemur 11.5025 11.7116 -16.2732
ltibia 34.523
lfoot 4.74241 -2.84392
ltoes -11.2869
391
root 9.55832 16.8587 31.4721 4.57729 2.64861 -1.14326
lowerback -6.52151 -4.31245 -1.87817
upperback -0.985668 -5.73083 3.64256
thorax 3.18667 -2.90223 4.27717
lowerneck -22.7716 -1.78027 -9.08782
upperneck 25.9461 -1.79821 8.58192
head 12.5619 -0.550356 4.54367
rclavicle -1.70085e-014 8.74653e-015
rhumerus -48.8282 -15.0123 -61.169
rradius 16.3393
rwrist 10.275
rhand -29.3086 -24.4937
rfingers 7.12502
rthumb -2.64977 -54.457
lclavicle -1.70085e-014 8.74653e-015
lhumerus -19.9017 -16.6571 89.5441
lradius 39.5977
lwrist 11.3794
lhand -16.2148 -28.6957
lfingers 7.12502
lthumb 9.99291 1.04706
rfemur -33.7906 2.41966 26.2459
rtibia 40.1997
rfoot -10.9855 2.96929
rtoes -15.2597
lfemur 9.957 11.4908 -15.3941
ltibia 38.4564
lfoot 6.28696 -1.8184
ltoes -10.7031
392
root 9.54981 16.8983 31.6704 4.45357 2.99023 -1.887
lowerback -8.61452 -4.21829 -1.352
upperback 0.829676 -5.71538 3.79984
thorax 6.2284 -2.93389 3.93379
lowerneck -24.2412 -2.2099 -9.59426
upperneck 24.7211 -2.2447 9.34899
head 12.4358 -0.653104 4.82529
rclavicle -2.23633e-014 -5.56597e-015
rhumerus -46.0684 -16.2718 -62.5343
rradius 16.5083
rwrist 8.89429
rhand -29.6106 -24.0261
rfingers 7.12502
rthumb -2.9414 -53.9856
lclavicle -2.23633e-014 -5.56597e-015
lhumerus -17.2489 -17.1465 89.1238
lradius 38.6186
lwrist 11.1396
lhand -15.8268 -28.5461
lfingers 7.12502
lthumb 10.3672 1.17834
rfemur -32.615 1.75809 27.3038
rtibia 39.6713
rfoot -11.2395 3.2706
rtoes -15.1575
lfemur 8.11959 11.2353 -14.5219
ltibia 42.2299
lfoot 7.69358 -0.67601
ltoes -10.6493
393
root 9.54401 16.9351 31.845 4.62567 3.1555 -2.36412
lowerback -8.92138 -4.13587 -0.948177
upperback 1.01433 -5.66606 3.93616
thorax 6.56891 -2.90161 3.83316
lowerneck -24.9245 -2.66266 -10.0539
upperneck 24.7603 -2.79562 9.83923
head 12.6697 -0.863738 5.01548
rclavicle 4.0403e-014 1.59028e-014
rhumerus -45.2697 -15.8369 -63.6451
rradius 16.7075
rwrist 7.12356
rhand -29.8091 -23.3123
rfingers 7.12502
rthumb -3.13313 -53.269
lclavicle 4.0403e-014 1.59028e-014
lhumerus -17.3237 -17.2712 89.4675
lradius 37.8732
lwrist 10.8577
lhand -15.2582 -28.096
lfingers 7.12502
lthumb 10.9157 1.60027
rfemur -31.8417 1.57106 27.9455
rtibia 39.1319
rfoot -11.3969 3.39288
rtoes -13.8342
lfemur 5.83532 11.1739 -14.0582
ltibia 45.9282
lfoot 8.53884 0.647277
ltoes -10.9872
394
root 9.53114 16.9604 32.0064 4.59856 3.10293 -2.44092
lowerback -7.07384 -4.00989 -0.821848
upperback -0.215984 -5.44194 3.92143
thorax 4.19861 -2.76206 3.94177
lowerneck -24.144 -2.66064 -9.81944
upperneck 25.5771 -2.91749 9.51101
head 12.8476 -0.964489 4.8494
rclavicle 3.09607e-014 -5.56597e-015
rhumerus -46.6937 -14.3566 -64.1909
rradius 16.9407
rwrist 5.48175
rhand -30.2459 -21.3271
rfingers 7.12502
rthumb -3.55491 -51.2772
lclavicle 3.09607e-014 -5.56597e-015
lhumerus -19.9785 -17.2362 90.5247
lradius 37.2371
lwrist 10.314
lhand -14.8388 -27.7343
lfingers 7.12502
lthumb 11.3202 1.94022
rfemur -30.8686 1.80369 28.0997
rtibia 38.4988
rfoot -11.5448 3.21159
rtoes -13.8531
lfemur 3.72077 11.4225 -13.917
ltibia 49.5708
lfoot 8.19548 2.11187
ltoes -13.0045
